<?xml version="1.0" encoding="UTF-8" standalone="no"?>
<svg
   height="128px"
   viewBox="0 0 128 128"
   width="128px"
   version="1.1"
   id="svg14"
   sodipodi:docname="org.broom.wloverview.svg"
   inkscape:version="1.4.3 (0d15f75042, 2025-12-25)"
   xmlns:inkscape="http://www.inkscape.org/namespaces/inkscape"
   xmlns:sodipodi="http://sodipodi.sourceforge.net/DTD/sodipodi-0.dtd"
   xmlns="http://www.w3.org/2000/svg"
   xmlns:svg="http://www.w3.org/2000/svg">
  <defs
     id="defs14" />
  <sodipodi:namedview
     id="namedview14"
     pagecolor="#ffffff"
     bordercolor="#000000"
     borderopacity="0.25"
     inkscape:showpageshadow="2"
     inkscape:pageopacity="0.0"
     inkscape:pagecheckerboard="0"
     inkscape:deskcolor="#d1d1d1"
     inkscape:zoom="9.078125"
     inkscape:cx="64"
     inkscape:cy="64"
     inkscape:window-width="1968"
     inkscape:window-height="1358"
     inkscape:window-x="0"
     inkscape:window-y="0"
     inkscape:window-maximized="0"
     inkscape:current-layer="svg14" />
  <linearGradient
     id="a"
     gradientUnits="userSpaceOnUse"
     x1="11.999989"
     x2="115.999989"
     y1="64"
     y2="64"
     gradientTransform="translate(0,-3)">
    <stop
       offset="0"
       stop-color="#3d3846"
       id="stop1" />
    <stop
       offset="0.05"
       stop-color="#77767b"
       id="stop2" />
    <stop
       offset="0.1"
       stop-color="#5e5c64"
       id="stop3" />
    <stop
       offset="0.899999"
       stop-color="#504e56"
       id="stop4" />
    <stop
       offset="0.95"
       stop-color="#77767b"
       id="stop5" />
    <stop
       offset="1"
       stop-color="#3d3846"
       id="stop6" />
  </linearGradient>
  <linearGradient
     id="b"
     gradientUnits="userSpaceOnUse"
     x1="12"
     x2="112.041023"
     y1="60"
     y2="80.988281">
    <stop
       offset="0"
       stop-color="#77767b"
       id="stop7" />
    <stop
       offset="0.384443"
       stop-color="#9a9996"
       id="stop8" />
    <stop
       offset="0.720567"
       stop-color="#77767b"
       id="stop9" />
    <stop
       offset="1"
       stop-color="#68666f"
       id="stop10" />
  </linearGradient>
  <path
     d="m 20,19 h 88 c 4.41797,0 8,3.582031 8,8 v 78 c 0,4.41797 -3.58203,8 -8,8 H 20 c -4.417969,0 -8,-3.58203 -8,-8 V 27 c 0,-4.417969 3.582031,-8 8,-8 z m 0,0"
     fill="url(#a)"
     id="path10"
     style="fill:url(#a)" />
  <path
     d="m 20 12 h 88 c 4.417969 0 8 3.582031 8 8 v 80 c 0 4.417969 -3.582031 8 -8 8 h -88 c -4.417969 0 -8 -3.582031 -8 -8 v -80 c 0 -4.417969 3.582031 -8 8 -8 z m 0 0"
     fill="url(#b)"
     id="path11" />
  <path
     d="m 20 14 h 88 c 3.3125 0 6 2.6875 6 6 v 80 c 0 3.3125 -2.6875 6 -6 6 h -88 c -3.3125 0 -6 -2.6875 -6 -6 v -80 c 0 -3.3125 2.6875 -6 6 -6 z m 0 0"
     fill="#241f31"
     id="path12"
     style="fill:#454955;fill-opacity:1" />
  <rect
     style="display:inline;fill:#f5c211;stroke:#b0aca7;stroke-width:0;stroke-linecap:round;stroke-linejoin:round;stroke-dasharray:none;enable-background:new"
     id="rect1"
     width="26"
     height="21"
     x="21"
     y="20"
     rx="5.909091" />
  <rect
     style="display:inline;opacity:0.842016;fill:#cfcbc6;stroke:#b0aca7;stroke-width:0;stroke-linecap:round;stroke-linejoin:round;stroke-dasharray:none;enable-background:new"
     id="rect7"
     width="85"
     height="15"
     x="21"
     y="88.000031"
     rx="5.0518637" />
  <rect
     style="display:inline;fill:#e01b24;stroke:#b0aca7;stroke-width:0;stroke-linecap:round;stroke-linejoin:round;stroke-dasharray:none;enable-background:new"
     id="rect8"
     width="26"
     height="21"
     x="51"
     y="20"
     rx="5.909091" />
  <rect
     style="display:inline;fill:#9141ac;stroke:#b0aca7;stroke-width:0;stroke-linecap:round;stroke-linejoin:round;stroke-dasharray:none;enable-background:new"
     id="rect9"
     width="26"
     height="21"
     x="81"
     y="20"
     rx="5.909091" />
  <rect
     style="display:inline;fill:#33d17a;stroke:#b0aca7;stroke-width:0;stroke-linecap:round;stroke-linejoin:round;stroke-dasharray:none;enable-background:new"
     id="rect12"
     width="26"
     height="21"
     x="21"
     y="44.900002"
     rx="5.909091" />
  <rect
     style="display:inline;fill:#ff7800;stroke:#b0aca7;stroke-width:0;stroke-linecap:round;stroke-linejoin:round;stroke-dasharray:none;enable-background:new"
     id="rect13"
     width="26"
     height="21"
     x="51"
     y="44.900002"
     rx="5.909091" />
  <rect
     style="display:inline;fill:#3584e4;stroke:#b0aca7;stroke-width:0;stroke-linecap:round;stroke-linejoin:round;stroke-dasharray:none;enable-background:new"
     id="rect14"
     width="26"
     height="21"
     x="81"
     y="44.900002"
     rx="5.909091" />
</svg>
