<?xml version="1.0" encoding="UTF-8" standalone="no"?>
<svg
   height="16px"
   viewBox="0 0 16 16"
   width="16px"
   version="1.1"
   id="svg3"
   sodipodi:docname="org.broom.wloverview-symbolic.svg"
   inkscape:version="1.4.3 (0d15f75042, 2025-12-25)"
   xmlns:inkscape="http://www.inkscape.org/namespaces/inkscape"
   xmlns:sodipodi="http://sodipodi.sourceforge.net/DTD/sodipodi-0.dtd"
   xmlns="http://www.w3.org/2000/svg"
   xmlns:svg="http://www.w3.org/2000/svg">
  <defs
     id="defs3" />
  <sodipodi:namedview
     id="namedview3"
     pagecolor="#ffffff"
     bordercolor="#000000"
     borderopacity="0.25"
     inkscape:showpageshadow="2"
     inkscape:pageopacity="0.0"
     inkscape:pagecheckerboard="0"
     inkscape:deskcolor="#d1d1d1"
     inkscape:zoom="51.35363"
     inkscape:cx="9.522209"
     inkscape:cy="11.985521"
     inkscape:window-width="1648"
     inkscape:window-height="1269"
     inkscape:window-x="0"
     inkscape:window-y="0"
     inkscape:window-maximized="0"
     inkscape:current-layer="svg3" />
  <path
     d="M 2.1875,1 C 0.980469,1 0,2.015625 0,3.21875 v 9.5625 C 0,13.984375 0.980469,15 2.1875,15 h 11.625 C 15.019531,15 16,13.984375 16,12.78125 V 3.21875 C 16,2.015625 15.019531,1 13.8125,1 Z m 0,2 h 11.625 C 13.933594,3 14,3.082031 14,3.21875 v 9.5625 C 14,12.917969 13.933594,13 13.8125,13 H 2.1875 C 2.066406,13 2,12.917969 2,12.78125 V 3.21875 C 2,3.082031 2.066406,3 2.1875,3 Z m 0,0"
     id="path1"
     style="fill:#241f31" />
  <path
     d="m 3.4,11 h 9.2 v 1.2 H 3.4 Z m 0,0"
     id="path3"
     style="fill:#241f31;stroke-width:1" />
  <path
     d="m 3.5,4 h 4 v 3 h -4 z m 0,0"
     id="path4"
     style="fill:#241f31;stroke-width:0.999997;stroke:none;stroke-opacity:1" />
  <path
     d="m 8.5,4 h 4 v 3 h -4 z m 0,0"
     id="path5"
     style="fill:#241f31;stroke-width:0.999997" />
  <path
     d="m 3.5,7.5 h 4 v 3 h -4 z m 0,0"
     id="path6"
     style="fill:#241f31;stroke-width:0.999997" />
  <path
     d="m 8.5,7.5 h 4 v 3 h -4 z m 0,0"
     id="path7"
     style="fill:#241f31;stroke-width:0.999997" />
</svg>
